With: Zachary Gordon, Steve Zahn and Robert Capron

We volgen Greg Heffley (Zachary Gordon), een bijdehante basisschool leerling, en de problemen die "middle-school" voor hem oplevert. Hij wordt daarbij gesteund door zijn vader Frank (Steve Zahn) en zijn beste vriend Rowley (Robert Capron). We zien aan de hand van zijn dagboek en tekeningen alle gebeurtenissen gedurende het schooljaar. Gebaseerd op de gelijknamige boeken van Jeff Kinney.

Live-action adaptation of Jeff Kinney's illustrated novel about a wise-cracking sixth grade student.

------------------------ Dutch Friends ------------------------
---------------------------------------------------------------
- Bezoek ook eens mijn vrienden op:  http://www.Film-Test.nl --
----- voor mijn Nederlandse Sync. ondertitels ---- en meer ----
------- http://www.Film-Test.nl ---- voor Films en meer -------
---------------------------------------------------------------

General:

Complete name                    : Diary of a Wimpy Kid\Diary of a Wimpy Kid.avi
Format                           : AVI
Format/Info                      : Audio Video Interleave
File size                        : 1.76 GiB
Duration                         : 1h 32mn
Overall bit rate                 : 2 727 Kbps

Video:

Format                           : MPEG-4 Visual
Format profile                   : Simple@L3
Format settings, BVOP            : No
Format settings, QPel            : No
Format settings, GMC             : No warppoints
Format settings, Matrix          : Default (H.263)
Codec ID                         : XVID
Codec ID/Hint                    : XviD
Duration                         : 1h 32mn
Bit rate                         : 2 268 Kbps
Width                            : 652 pixels
Height                           : 352 pixels
Display aspect ratio             : 1.852
Frame rate                       : 23.976 fps
Color space                      : YUV
Chroma subsampling               : 4:2:0
Bit depth                        : 8 bits
Scan type                        : Progressive
Compression mode                 : Lossy
Bits/(Pixel*Frame)               : 0.412
Stream size                      : 1.47 GiB (83%)
Writing library                  : XviD 1.1.2 (UTC 2006-11-01)

Audio:

Format                           : AC-3
Format/Info                      : Audio Coding 3
Mode extension                   : CM (complete main)
Codec ID                         : 2000
Duration                         : 1h 32mn
Bit rate mode                    : Constant
Bit rate                         : 448 Kbps
Channel(s)                       : 6 channels
Channel positions                : Front: L C R, Side: L R, LFE
Sampling rate                    : 48.0 KHz
Bit depth                        : 16 bits
Compression mode                 : Lossy
Stream size                      : 297 MiB (16%)
Alignment                        : Aligned on interleaves
Interleave, duration             : 32 ms (0.77 video frame)


